%TF.GenerationSoftware,KiCad,Pcbnew,(6.0.5)*%
%TF.CreationDate,2022-06-14T16:38:24+01:00*%
%TF.ProjectId,precharge,70726563-6861-4726-9765-2e6b69636164,rev?*%
%TF.SameCoordinates,Original*%
%TF.FileFunction,Soldermask,Top*%
%TF.FilePolarity,Negative*%
%FSLAX46Y46*%
G04 Gerber Fmt 4.6, Leading zero omitted, Abs format (unit mm)*
G04 Created by KiCad (PCBNEW (6.0.5)) date 2022-06-14 16:38:24*
%MOMM*%
%LPD*%
G01*
G04 APERTURE LIST*
G04 Aperture macros list*
%AMRoundRect*
0 Rectangle with rounded corners*
0 $1 Rounding radius*
0 $2 $3 $4 $5 $6 $7 $8 $9 X,Y pos of 4 corners*
0 Add a 4 corners polygon primitive as box body*
4,1,4,$2,$3,$4,$5,$6,$7,$8,$9,$2,$3,0*
0 Add four circle primitives for the rounded corners*
1,1,$1+$1,$2,$3*
1,1,$1+$1,$4,$5*
1,1,$1+$1,$6,$7*
1,1,$1+$1,$8,$9*
0 Add four rect primitives between the rounded corners*
20,1,$1+$1,$2,$3,$4,$5,0*
20,1,$1+$1,$4,$5,$6,$7,0*
20,1,$1+$1,$6,$7,$8,$9,0*
20,1,$1+$1,$8,$9,$2,$3,0*%
%AMFreePoly0*
4,1,43,1.580355,1.210355,1.595000,1.175000,1.595000,0.775000,1.580355,0.739645,1.545000,0.725000,0.975000,0.725000,0.975000,0.575000,1.545000,0.575000,1.580355,0.560355,1.595000,0.525000,1.595000,0.125000,1.580355,0.089645,1.545000,0.075000,0.975000,0.075000,0.975000,-0.075000,1.545000,-0.075000,1.580355,-0.089645,1.595000,-0.125000,1.595000,-0.525000,1.580355,-0.560355,
1.545000,-0.575000,0.975000,-0.575000,0.975000,-0.725000,1.545000,-0.725000,1.580355,-0.739645,1.595000,-0.775000,1.595000,-1.175000,1.580355,-1.210355,1.545000,-1.225000,0.925000,-1.225000,0.889645,-1.210355,0.875000,-1.175000,-0.925000,-1.175000,-0.960355,-1.160355,-0.975000,-1.125000,-0.975000,1.125000,-0.960355,1.160355,-0.925000,1.175000,0.875000,1.175000,0.889645,1.210355,
0.925000,1.225000,1.545000,1.225000,1.580355,1.210355,1.580355,1.210355,$1*%
G04 Aperture macros list end*
%ADD10C,1.700000*%
%ADD11RoundRect,0.200000X-0.200000X-0.275000X0.200000X-0.275000X0.200000X0.275000X-0.200000X0.275000X0*%
%ADD12RoundRect,0.150000X-0.587500X-0.150000X0.587500X-0.150000X0.587500X0.150000X-0.587500X0.150000X0*%
%ADD13R,0.700000X0.450000*%
%ADD14RoundRect,0.200000X-0.275000X0.200000X-0.275000X-0.200000X0.275000X-0.200000X0.275000X0.200000X0*%
%ADD15RoundRect,0.225000X0.225000X0.250000X-0.225000X0.250000X-0.225000X-0.250000X0.225000X-0.250000X0*%
%ADD16O,1.500000X2.020000*%
%ADD17RoundRect,0.250001X-0.499999X-0.759999X0.499999X-0.759999X0.499999X0.759999X-0.499999X0.759999X0*%
%ADD18C,3.000000*%
%ADD19RoundRect,0.250000X0.625000X-0.312500X0.625000X0.312500X-0.625000X0.312500X-0.625000X-0.312500X0*%
%ADD20RoundRect,0.150000X0.150000X-0.587500X0.150000X0.587500X-0.150000X0.587500X-0.150000X-0.587500X0*%
%ADD21RoundRect,0.250000X-0.450000X0.262500X-0.450000X-0.262500X0.450000X-0.262500X0.450000X0.262500X0*%
%ADD22O,2.020000X1.500000*%
%ADD23RoundRect,0.250001X-0.759999X0.499999X-0.759999X-0.499999X0.759999X-0.499999X0.759999X0.499999X0*%
%ADD24R,1.600000X1.600000*%
%ADD25C,1.600000*%
%ADD26FreePoly0,0.000000*%
%ADD27RoundRect,0.050000X-0.415000X-0.200000X0.415000X-0.200000X0.415000X0.200000X-0.415000X0.200000X0*%
%ADD28RoundRect,0.250000X0.450000X-0.262500X0.450000X0.262500X-0.450000X0.262500X-0.450000X-0.262500X0*%
%ADD29RoundRect,0.150000X-0.825000X-0.150000X0.825000X-0.150000X0.825000X0.150000X-0.825000X0.150000X0*%
%ADD30RoundRect,0.200000X0.275000X-0.200000X0.275000X0.200000X-0.275000X0.200000X-0.275000X-0.200000X0*%
%ADD31RoundRect,0.225000X-0.225000X-0.250000X0.225000X-0.250000X0.225000X0.250000X-0.225000X0.250000X0*%
%ADD32RoundRect,0.200000X0.200000X0.275000X-0.200000X0.275000X-0.200000X-0.275000X0.200000X-0.275000X0*%
%ADD33R,2.500000X1.800000*%
%ADD34R,2.300000X2.300000*%
%ADD35C,2.500000*%
%ADD36C,2.300000*%
%ADD37C,2.800000*%
%ADD38RoundRect,0.250000X-0.625000X0.312500X-0.625000X-0.312500X0.625000X-0.312500X0.625000X0.312500X0*%
%ADD39R,1.800000X2.500000*%
%ADD40RoundRect,0.218750X-0.218750X-0.256250X0.218750X-0.256250X0.218750X0.256250X-0.218750X0.256250X0*%
%ADD41RoundRect,0.225000X-0.250000X0.225000X-0.250000X-0.225000X0.250000X-0.225000X0.250000X0.225000X0*%
%ADD42C,3.200000*%
%ADD43RoundRect,0.218750X0.256250X-0.218750X0.256250X0.218750X-0.256250X0.218750X-0.256250X-0.218750X0*%
%ADD44RoundRect,0.250001X0.759999X-0.499999X0.759999X0.499999X-0.759999X0.499999X-0.759999X-0.499999X0*%
%ADD45O,1.600000X1.600000*%
%ADD46R,0.900000X1.200000*%
%ADD47R,1.200000X0.900000*%
%ADD48R,2.200000X1.200000*%
%ADD49R,6.400000X5.800000*%
%ADD50RoundRect,0.218750X-0.256250X0.218750X-0.256250X-0.218750X0.256250X-0.218750X0.256250X0.218750X0*%
G04 APERTURE END LIST*
D10*
X192420000Y-84650000D03*
X189880000Y-84650000D03*
X182260000Y-84650000D03*
X177180000Y-84650000D03*
D11*
X240275000Y-93600000D03*
X241925000Y-93600000D03*
D12*
X139362500Y-119250000D03*
X139362500Y-121150000D03*
X141237500Y-120200000D03*
D13*
X158000000Y-123850000D03*
X158000000Y-125150000D03*
X160000000Y-124500000D03*
D11*
X174775000Y-92400000D03*
X176425000Y-92400000D03*
D14*
X215500000Y-106875000D03*
X215500000Y-108525000D03*
D15*
X208375000Y-89900000D03*
X206825000Y-89900000D03*
D16*
X232875000Y-85800000D03*
D17*
X229875000Y-85800000D03*
D18*
X231375000Y-81480000D03*
D11*
X240250000Y-84600000D03*
X241900000Y-84600000D03*
D15*
X209375000Y-103300000D03*
X207825000Y-103300000D03*
D19*
X176000000Y-114500000D03*
X176000000Y-111575000D03*
D20*
X213950000Y-104637500D03*
X215850000Y-104637500D03*
X214900000Y-102762500D03*
D21*
X149700000Y-109087500D03*
X149700000Y-110912500D03*
X144700000Y-100887500D03*
X144700000Y-102712500D03*
D11*
X240275000Y-80100000D03*
X241925000Y-80100000D03*
D22*
X244530000Y-92100000D03*
X244530000Y-89100000D03*
X244530000Y-86100000D03*
X244530000Y-83100000D03*
D23*
X244530000Y-80100000D03*
D18*
X248850000Y-89950000D03*
X248850000Y-82250000D03*
D24*
X166400000Y-93147349D03*
D25*
X166400000Y-96647349D03*
D12*
X148000000Y-142560000D03*
X148000000Y-144460000D03*
X149875000Y-143510000D03*
D14*
X171090000Y-107370000D03*
X171090000Y-109020000D03*
D21*
X162200000Y-121387500D03*
X162200000Y-123212500D03*
D14*
X137200000Y-142560000D03*
X137200000Y-144210000D03*
D26*
X225500000Y-92100000D03*
D27*
X223560000Y-93075000D03*
X223560000Y-92425000D03*
X223560000Y-91775000D03*
X223560000Y-91125000D03*
D28*
X154700000Y-98612500D03*
X154700000Y-96787500D03*
D29*
X205125000Y-91590000D03*
X205125000Y-92860000D03*
X205125000Y-94130000D03*
X205125000Y-95400000D03*
X205125000Y-96670000D03*
X205125000Y-97940000D03*
X205125000Y-99210000D03*
X210075000Y-99210000D03*
X210075000Y-97940000D03*
X210075000Y-96670000D03*
X210075000Y-95400000D03*
X210075000Y-94130000D03*
X210075000Y-92860000D03*
X210075000Y-91590000D03*
D13*
X198700000Y-112250000D03*
X198700000Y-113550000D03*
X200700000Y-112900000D03*
D30*
X150000000Y-126325000D03*
X150000000Y-124675000D03*
D29*
X210075000Y-105490000D03*
X210075000Y-106760000D03*
X210075000Y-108030000D03*
X210075000Y-109300000D03*
X210075000Y-110570000D03*
X210075000Y-111840000D03*
X210075000Y-113110000D03*
X205125000Y-113110000D03*
X205125000Y-111840000D03*
X205125000Y-110570000D03*
X205125000Y-109300000D03*
X205125000Y-108030000D03*
X205125000Y-106760000D03*
X205125000Y-105490000D03*
D31*
X165425000Y-113000000D03*
X166975000Y-113000000D03*
D19*
X176000000Y-108662500D03*
X176000000Y-105737500D03*
D32*
X209425000Y-101600000D03*
X207775000Y-101600000D03*
D11*
X165875000Y-125450000D03*
X167525000Y-125450000D03*
D21*
X139700000Y-100887500D03*
X139700000Y-102712500D03*
D30*
X230700000Y-124725000D03*
X230700000Y-123075000D03*
D11*
X162225000Y-125450000D03*
X163875000Y-125450000D03*
D12*
X198762500Y-97550000D03*
X198762500Y-99450000D03*
X200637500Y-98500000D03*
D24*
X219900000Y-113000000D03*
D25*
X219900000Y-111000000D03*
D33*
X233375000Y-92400000D03*
X229375000Y-92400000D03*
D11*
X165375000Y-114700000D03*
X167025000Y-114700000D03*
D28*
X154700000Y-106812500D03*
X154700000Y-104987500D03*
X134700000Y-102712500D03*
X134700000Y-100887500D03*
D29*
X163025000Y-103290000D03*
X163025000Y-104560000D03*
X163025000Y-105830000D03*
X163025000Y-107100000D03*
X163025000Y-108370000D03*
X163025000Y-109640000D03*
X163025000Y-110910000D03*
X167975000Y-110910000D03*
X167975000Y-109640000D03*
X167975000Y-108370000D03*
X167975000Y-107100000D03*
X167975000Y-105830000D03*
X167975000Y-104560000D03*
X167975000Y-103290000D03*
D24*
X239000000Y-111300000D03*
D25*
X239000000Y-113800000D03*
D12*
X152862500Y-120450000D03*
X152862500Y-122350000D03*
X154737500Y-121400000D03*
D30*
X213900000Y-108525000D03*
X213900000Y-106875000D03*
D34*
X225400000Y-100625000D03*
D35*
X225400000Y-110825000D03*
X225400000Y-118525000D03*
D36*
X233000000Y-100625000D03*
D11*
X240275000Y-87600000D03*
X241925000Y-87600000D03*
D21*
X154700000Y-92687500D03*
X154700000Y-94512500D03*
D37*
X124300000Y-127385000D03*
X124300000Y-119785000D03*
X124300000Y-100085000D03*
X124300000Y-92485000D03*
D30*
X139300000Y-125100000D03*
X139300000Y-123450000D03*
D28*
X139700000Y-106812500D03*
X139700000Y-104987500D03*
D13*
X218000000Y-102750000D03*
X218000000Y-104050000D03*
X220000000Y-103400000D03*
D22*
X244530000Y-109600000D03*
X244530000Y-106600000D03*
X244530000Y-103600000D03*
D23*
X244530000Y-100600000D03*
D18*
X248850000Y-102750000D03*
X248850000Y-107450000D03*
D38*
X176000000Y-97937500D03*
X176000000Y-100862500D03*
D14*
X150000000Y-120475000D03*
X150000000Y-122125000D03*
D34*
X201025000Y-125000000D03*
D35*
X211225000Y-125000000D03*
X218925000Y-125000000D03*
D36*
X201025000Y-117400000D03*
D11*
X240275000Y-90600000D03*
X241925000Y-90600000D03*
D13*
X172900000Y-116150000D03*
X172900000Y-114850000D03*
X170900000Y-115500000D03*
D39*
X239100000Y-106200000D03*
X239100000Y-102200000D03*
D24*
X198517621Y-92400000D03*
D25*
X201017621Y-92400000D03*
D21*
X139700000Y-109087500D03*
X139700000Y-110912500D03*
D12*
X198762500Y-108350000D03*
X198762500Y-110250000D03*
X200637500Y-109300000D03*
D13*
X158000000Y-120750000D03*
X158000000Y-122050000D03*
X160000000Y-121400000D03*
D14*
X141100000Y-123450000D03*
X141100000Y-125100000D03*
D28*
X139700000Y-115012500D03*
X139700000Y-113187500D03*
D21*
X134700000Y-104987500D03*
X134700000Y-106812500D03*
D24*
X145462500Y-122944888D03*
D25*
X145462500Y-124944888D03*
D28*
X149700000Y-106812500D03*
X149700000Y-104987500D03*
D40*
X174812500Y-94400000D03*
X176387500Y-94400000D03*
D11*
X240275000Y-92100000D03*
X241925000Y-92100000D03*
D21*
X144700000Y-109087500D03*
X144700000Y-110912500D03*
X154700000Y-100887500D03*
X154700000Y-102712500D03*
D14*
X206000000Y-101675000D03*
X206000000Y-103325000D03*
D28*
X134700000Y-109087500D03*
X134700000Y-110912500D03*
D29*
X213425000Y-91590000D03*
X213425000Y-92860000D03*
X213425000Y-94130000D03*
X213425000Y-95400000D03*
X213425000Y-96670000D03*
X213425000Y-97940000D03*
X213425000Y-99210000D03*
X218375000Y-99210000D03*
X218375000Y-97940000D03*
X218375000Y-96670000D03*
X218375000Y-95400000D03*
X218375000Y-94130000D03*
X218375000Y-92860000D03*
X218375000Y-91590000D03*
D12*
X152862500Y-124550000D03*
X152862500Y-126450000D03*
X154737500Y-125500000D03*
D41*
X220900000Y-96825000D03*
X220900000Y-98375000D03*
D11*
X240250000Y-86100000D03*
X241900000Y-86100000D03*
D21*
X149700000Y-100887500D03*
X149700000Y-102712500D03*
D11*
X240275000Y-83100000D03*
X241925000Y-83100000D03*
D24*
X166244888Y-119200000D03*
D25*
X168244888Y-119200000D03*
D42*
X173100000Y-127000000D03*
D28*
X154700000Y-115012500D03*
X154700000Y-113187500D03*
D32*
X164725000Y-101500000D03*
X163075000Y-101500000D03*
D11*
X240275000Y-81600000D03*
X241925000Y-81600000D03*
D42*
X238400000Y-127000000D03*
X200500000Y-81200000D03*
D43*
X232400000Y-124687500D03*
X232400000Y-123112500D03*
D13*
X198700000Y-101650000D03*
X198700000Y-102950000D03*
X200700000Y-102300000D03*
X172900000Y-113250000D03*
X172900000Y-111950000D03*
X170900000Y-112600000D03*
D30*
X137200000Y-139335000D03*
X137200000Y-140985000D03*
D14*
X171090000Y-101070000D03*
X171090000Y-102720000D03*
D16*
X221375000Y-85800000D03*
D17*
X218375000Y-85800000D03*
D18*
X219875000Y-81480000D03*
D28*
X139700000Y-98612500D03*
X139700000Y-96787500D03*
D22*
X129545000Y-136825000D03*
D44*
X129545000Y-139825000D03*
D18*
X125225000Y-138325000D03*
D32*
X134300000Y-136825000D03*
X132650000Y-136825000D03*
D24*
X179450000Y-105725000D03*
D45*
X179450000Y-108265000D03*
X189610000Y-108265000D03*
X189610000Y-105725000D03*
D21*
X149700000Y-92687500D03*
X149700000Y-94512500D03*
X154700000Y-109087500D03*
X154700000Y-110912500D03*
D16*
X168200000Y-85770000D03*
X165200000Y-85770000D03*
X162200000Y-85770000D03*
X159200000Y-85770000D03*
X156200000Y-85770000D03*
D17*
X153200000Y-85770000D03*
D18*
X155350000Y-81450000D03*
X166050000Y-81450000D03*
D14*
X171090000Y-104170000D03*
X171090000Y-105820000D03*
D30*
X192800000Y-98590000D03*
X192800000Y-96940000D03*
D40*
X225812500Y-96800000D03*
X227387500Y-96800000D03*
D30*
X239400000Y-120625000D03*
X239400000Y-118975000D03*
D21*
X144700000Y-92687500D03*
X144700000Y-94512500D03*
X134700000Y-96787500D03*
X134700000Y-98612500D03*
D22*
X244530000Y-124100000D03*
X244530000Y-121100000D03*
D23*
X244530000Y-118100000D03*
D18*
X248850000Y-121100000D03*
D29*
X144850000Y-140020000D03*
X144850000Y-141290000D03*
X144850000Y-142560000D03*
X144850000Y-143830000D03*
X139900000Y-143830000D03*
X139900000Y-142560000D03*
X139900000Y-141290000D03*
X139900000Y-140020000D03*
D24*
X179450000Y-96925000D03*
D45*
X179450000Y-99465000D03*
X189610000Y-99465000D03*
X189610000Y-96925000D03*
D28*
X144700000Y-106812500D03*
X144700000Y-104987500D03*
D46*
X142550000Y-134100000D03*
X145850000Y-134100000D03*
D21*
X139700000Y-92687500D03*
X139700000Y-94512500D03*
D30*
X135500000Y-144210000D03*
X135500000Y-142560000D03*
D28*
X149700000Y-98612500D03*
X149700000Y-96787500D03*
D47*
X133300000Y-144210000D03*
X133300000Y-140910000D03*
D14*
X232100000Y-95075000D03*
X232100000Y-96725000D03*
D43*
X237700000Y-120587500D03*
X237700000Y-119012500D03*
D28*
X149700000Y-115012500D03*
X149700000Y-113187500D03*
D43*
X225300000Y-124787500D03*
X225300000Y-123212500D03*
D28*
X144700000Y-98612500D03*
X144700000Y-96787500D03*
D13*
X198700000Y-104950000D03*
X198700000Y-106250000D03*
X200700000Y-105600000D03*
D24*
X179450000Y-114525000D03*
D45*
X179450000Y-117065000D03*
X189610000Y-117065000D03*
X189610000Y-114525000D03*
D28*
X144700000Y-115012500D03*
X144700000Y-113187500D03*
D16*
X144800000Y-85770000D03*
X141800000Y-85770000D03*
X138800000Y-85770000D03*
X135800000Y-85770000D03*
X132800000Y-85770000D03*
D17*
X129800000Y-85770000D03*
D18*
X131950000Y-81450000D03*
X142650000Y-81450000D03*
D48*
X148800000Y-138660000D03*
D49*
X155100000Y-136380000D03*
D48*
X148800000Y-134100000D03*
D14*
X192800000Y-108275000D03*
X192800000Y-109925000D03*
D30*
X192800000Y-117100000D03*
X192800000Y-115450000D03*
D50*
X233800000Y-95112500D03*
X233800000Y-96687500D03*
D11*
X225775000Y-95100000D03*
X227425000Y-95100000D03*
D28*
X134700000Y-94512500D03*
X134700000Y-92687500D03*
D30*
X223600000Y-124825000D03*
X223600000Y-123175000D03*
D11*
X240275000Y-89100000D03*
X241925000Y-89100000D03*
M02*
