%TF.GenerationSoftware,KiCad,Pcbnew,(6.0.5)*%
%TF.CreationDate,2022-06-14T16:38:24+01:00*%
%TF.ProjectId,precharge,70726563-6861-4726-9765-2e6b69636164,rev?*%
%TF.SameCoordinates,Original*%
%TF.FileFunction,Legend,Bot*%
%TF.FilePolarity,Positive*%
%FSLAX46Y46*%
G04 Gerber Fmt 4.6, Leading zero omitted, Abs format (unit mm)*
G04 Created by KiCad (PCBNEW (6.0.5)) date 2022-06-14 16:38:24*
%MOMM*%
%LPD*%
G01*
G04 APERTURE LIST*
G04 Aperture macros list*
%AMRoundRect*
0 Rectangle with rounded corners*
0 $1 Rounding radius*
0 $2 $3 $4 $5 $6 $7 $8 $9 X,Y pos of 4 corners*
0 Add a 4 corners polygon primitive as box body*
4,1,4,$2,$3,$4,$5,$6,$7,$8,$9,$2,$3,0*
0 Add four circle primitives for the rounded corners*
1,1,$1+$1,$2,$3*
1,1,$1+$1,$4,$5*
1,1,$1+$1,$6,$7*
1,1,$1+$1,$8,$9*
0 Add four rect primitives between the rounded corners*
20,1,$1+$1,$2,$3,$4,$5,0*
20,1,$1+$1,$4,$5,$6,$7,0*
20,1,$1+$1,$6,$7,$8,$9,0*
20,1,$1+$1,$8,$9,$2,$3,0*%
G04 Aperture macros list end*
%ADD10C,0.150000*%
%ADD11C,0.200000*%
%ADD12C,1.700000*%
%ADD13O,1.500000X2.020000*%
%ADD14RoundRect,0.250001X-0.499999X-0.759999X0.499999X-0.759999X0.499999X0.759999X-0.499999X0.759999X0*%
%ADD15C,3.000000*%
%ADD16O,2.020000X1.500000*%
%ADD17RoundRect,0.250001X-0.759999X0.499999X-0.759999X-0.499999X0.759999X-0.499999X0.759999X0.499999X0*%
%ADD18R,1.600000X1.600000*%
%ADD19C,1.600000*%
%ADD20R,2.300000X2.300000*%
%ADD21C,2.500000*%
%ADD22C,2.300000*%
%ADD23C,2.800000*%
%ADD24C,3.200000*%
%ADD25RoundRect,0.250001X0.759999X-0.499999X0.759999X0.499999X-0.759999X0.499999X-0.759999X-0.499999X0*%
%ADD26O,1.600000X1.600000*%
G04 APERTURE END LIST*
D10*
X131900000Y-89900000D02*
X142700000Y-89900000D01*
X142700000Y-89900000D02*
X142700000Y-88000000D01*
X142700000Y-88000000D02*
X131900000Y-88000000D01*
X131900000Y-88000000D02*
X131900000Y-89900000D01*
X143800000Y-90100000D02*
X156700000Y-90100000D01*
X156700000Y-90100000D02*
X156700000Y-87700000D01*
X156700000Y-87700000D02*
X143800000Y-87700000D01*
X143800000Y-87700000D02*
X143800000Y-90100000D01*
X238100000Y-96900000D02*
X242400000Y-96900000D01*
X242400000Y-96900000D02*
X242400000Y-95000000D01*
X242400000Y-95000000D02*
X238100000Y-95000000D01*
X238100000Y-95000000D02*
X238100000Y-96900000D01*
X243500000Y-130350000D02*
X252600000Y-130350000D01*
X252600000Y-130350000D02*
X252600000Y-128450000D01*
X252600000Y-128450000D02*
X243500000Y-128450000D01*
X243500000Y-128450000D02*
X243500000Y-130350000D01*
X235800000Y-99800000D02*
X242400000Y-99800000D01*
X242400000Y-99800000D02*
X242400000Y-97900000D01*
X242400000Y-97900000D02*
X235800000Y-97900000D01*
X235800000Y-97900000D02*
X235800000Y-99800000D01*
X124300000Y-143850000D02*
X128000000Y-143850000D01*
X128000000Y-143850000D02*
X128000000Y-141950000D01*
X128000000Y-141950000D02*
X124300000Y-141950000D01*
X124300000Y-141950000D02*
X124300000Y-143850000D01*
X156107261Y-97652380D02*
X155535833Y-97652380D01*
X155821547Y-98652380D02*
X155821547Y-97652380D01*
X155202500Y-98652380D02*
X155202500Y-97652380D01*
X155202500Y-98128571D02*
X154631071Y-98128571D01*
X154631071Y-98652380D02*
X154631071Y-97652380D01*
X154154880Y-98128571D02*
X153821547Y-98128571D01*
X153678690Y-98652380D02*
X154154880Y-98652380D01*
X154154880Y-97652380D01*
X153678690Y-97652380D01*
X152678690Y-98652380D02*
X153012023Y-98176190D01*
X153250119Y-98652380D02*
X153250119Y-97652380D01*
X152869166Y-97652380D01*
X152773928Y-97700000D01*
X152726309Y-97747619D01*
X152678690Y-97842857D01*
X152678690Y-97985714D01*
X152726309Y-98080952D01*
X152773928Y-98128571D01*
X152869166Y-98176190D01*
X153250119Y-98176190D01*
X152250119Y-98652380D02*
X152250119Y-97652380D01*
X151916785Y-98366666D01*
X151583452Y-97652380D01*
X151583452Y-98652380D01*
X150916785Y-97652380D02*
X150726309Y-97652380D01*
X150631071Y-97700000D01*
X150535833Y-97795238D01*
X150488214Y-97985714D01*
X150488214Y-98319047D01*
X150535833Y-98509523D01*
X150631071Y-98604761D01*
X150726309Y-98652380D01*
X150916785Y-98652380D01*
X151012023Y-98604761D01*
X151107261Y-98509523D01*
X151154880Y-98319047D01*
X151154880Y-97985714D01*
X151107261Y-97795238D01*
X151012023Y-97700000D01*
X150916785Y-97652380D01*
X149345357Y-98604761D02*
X149202500Y-98652380D01*
X148964404Y-98652380D01*
X148869166Y-98604761D01*
X148821547Y-98557142D01*
X148773928Y-98461904D01*
X148773928Y-98366666D01*
X148821547Y-98271428D01*
X148869166Y-98223809D01*
X148964404Y-98176190D01*
X149154880Y-98128571D01*
X149250119Y-98080952D01*
X149297738Y-98033333D01*
X149345357Y-97938095D01*
X149345357Y-97842857D01*
X149297738Y-97747619D01*
X149250119Y-97700000D01*
X149154880Y-97652380D01*
X148916785Y-97652380D01*
X148773928Y-97700000D01*
X148345357Y-98652380D02*
X148345357Y-97652380D01*
X147345357Y-97700000D02*
X147440595Y-97652380D01*
X147583452Y-97652380D01*
X147726309Y-97700000D01*
X147821547Y-97795238D01*
X147869166Y-97890476D01*
X147916785Y-98080952D01*
X147916785Y-98223809D01*
X147869166Y-98414285D01*
X147821547Y-98509523D01*
X147726309Y-98604761D01*
X147583452Y-98652380D01*
X147488214Y-98652380D01*
X147345357Y-98604761D01*
X147297738Y-98557142D01*
X147297738Y-98223809D01*
X147488214Y-98223809D01*
X242273928Y-79552380D02*
X242083452Y-79552380D01*
X241988214Y-79600000D01*
X241892976Y-79695238D01*
X241845357Y-79885714D01*
X241845357Y-80219047D01*
X241892976Y-80409523D01*
X241988214Y-80504761D01*
X242083452Y-80552380D01*
X242273928Y-80552380D01*
X242369166Y-80504761D01*
X242464404Y-80409523D01*
X242512023Y-80219047D01*
X242512023Y-79885714D01*
X242464404Y-79695238D01*
X242369166Y-79600000D01*
X242273928Y-79552380D01*
X241559642Y-79552380D02*
X241226309Y-80552380D01*
X240892976Y-79552380D01*
X240559642Y-80028571D02*
X240226309Y-80028571D01*
X240083452Y-80552380D02*
X240559642Y-80552380D01*
X240559642Y-79552380D01*
X240083452Y-79552380D01*
X239083452Y-80552380D02*
X239416785Y-80076190D01*
X239654880Y-80552380D02*
X239654880Y-79552380D01*
X239273928Y-79552380D01*
X239178690Y-79600000D01*
X239131071Y-79647619D01*
X239083452Y-79742857D01*
X239083452Y-79885714D01*
X239131071Y-79980952D01*
X239178690Y-80028571D01*
X239273928Y-80076190D01*
X239654880Y-80076190D01*
X238797738Y-79552380D02*
X238226309Y-79552380D01*
X238512023Y-80552380D02*
X238512023Y-79552380D01*
X237892976Y-80028571D02*
X237559642Y-80028571D01*
X237416785Y-80552380D02*
X237892976Y-80552380D01*
X237892976Y-79552380D01*
X237416785Y-79552380D01*
X236988214Y-80552380D02*
X236988214Y-79552380D01*
X236654880Y-80266666D01*
X236321547Y-79552380D01*
X236321547Y-80552380D01*
X235845357Y-80552380D02*
X235845357Y-79552380D01*
X235464404Y-79552380D01*
X235369166Y-79600000D01*
X235321547Y-79647619D01*
X235273928Y-79742857D01*
X235273928Y-79885714D01*
X235321547Y-79980952D01*
X235369166Y-80028571D01*
X235464404Y-80076190D01*
X235845357Y-80076190D01*
X252640595Y-112600000D02*
X252735833Y-112552380D01*
X252878690Y-112552380D01*
X253021547Y-112600000D01*
X253116785Y-112695238D01*
X253164404Y-112790476D01*
X253212023Y-112980952D01*
X253212023Y-113123809D01*
X253164404Y-113314285D01*
X253116785Y-113409523D01*
X253021547Y-113504761D01*
X252878690Y-113552380D01*
X252783452Y-113552380D01*
X252640595Y-113504761D01*
X252592976Y-113457142D01*
X252592976Y-113123809D01*
X252783452Y-113123809D01*
X252164404Y-113552380D02*
X252164404Y-112552380D01*
X251592976Y-113552380D01*
X251592976Y-112552380D01*
X251116785Y-113552380D02*
X251116785Y-112552380D01*
X250878690Y-112552380D01*
X250735833Y-112600000D01*
X250640595Y-112695238D01*
X250592976Y-112790476D01*
X250545357Y-112980952D01*
X250545357Y-113123809D01*
X250592976Y-113314285D01*
X250640595Y-113409523D01*
X250735833Y-113504761D01*
X250878690Y-113552380D01*
X251116785Y-113552380D01*
X141964404Y-100102380D02*
X141964404Y-99102380D01*
X141964404Y-99578571D02*
X141392976Y-99578571D01*
X141392976Y-100102380D02*
X141392976Y-99102380D01*
X141059642Y-99102380D02*
X140726309Y-100102380D01*
X140392976Y-99102380D01*
X139297738Y-100102380D02*
X139297738Y-99102380D01*
X138821547Y-100102380D02*
X138821547Y-99102380D01*
X138250119Y-100102380D01*
X138250119Y-99102380D01*
X253212023Y-127904761D02*
X253069166Y-127952380D01*
X252831071Y-127952380D01*
X252735833Y-127904761D01*
X252688214Y-127857142D01*
X252640595Y-127761904D01*
X252640595Y-127666666D01*
X252688214Y-127571428D01*
X252735833Y-127523809D01*
X252831071Y-127476190D01*
X253021547Y-127428571D01*
X253116785Y-127380952D01*
X253164404Y-127333333D01*
X253212023Y-127238095D01*
X253212023Y-127142857D01*
X253164404Y-127047619D01*
X253116785Y-127000000D01*
X253021547Y-126952380D01*
X252783452Y-126952380D01*
X252640595Y-127000000D01*
X252212023Y-127952380D02*
X252212023Y-126952380D01*
X252212023Y-127428571D02*
X251640595Y-127428571D01*
X251640595Y-127952380D02*
X251640595Y-126952380D01*
X251307261Y-126952380D02*
X250735833Y-126952380D01*
X251021547Y-127952380D02*
X251021547Y-126952380D01*
X249640595Y-127952380D02*
X249640595Y-126952380D01*
X249402500Y-126952380D01*
X249259642Y-127000000D01*
X249164404Y-127095238D01*
X249116785Y-127190476D01*
X249069166Y-127380952D01*
X249069166Y-127523809D01*
X249116785Y-127714285D01*
X249164404Y-127809523D01*
X249259642Y-127904761D01*
X249402500Y-127952380D01*
X249640595Y-127952380D01*
X248735833Y-126952380D02*
X248497738Y-127952380D01*
X248307261Y-127238095D01*
X248116785Y-127952380D01*
X247878690Y-126952380D01*
X247497738Y-127952380D02*
X247497738Y-126952380D01*
X246926309Y-127952380D01*
X246926309Y-126952380D01*
X245497738Y-126952380D02*
X245307261Y-126952380D01*
X245212023Y-127000000D01*
X245116785Y-127095238D01*
X245069166Y-127285714D01*
X245069166Y-127619047D01*
X245116785Y-127809523D01*
X245212023Y-127904761D01*
X245307261Y-127952380D01*
X245497738Y-127952380D01*
X245592976Y-127904761D01*
X245688214Y-127809523D01*
X245735833Y-127619047D01*
X245735833Y-127285714D01*
X245688214Y-127095238D01*
X245592976Y-127000000D01*
X245497738Y-126952380D01*
X244640595Y-126952380D02*
X244640595Y-127761904D01*
X244592976Y-127857142D01*
X244545357Y-127904761D01*
X244450119Y-127952380D01*
X244259642Y-127952380D01*
X244164404Y-127904761D01*
X244116785Y-127857142D01*
X244069166Y-127761904D01*
X244069166Y-126952380D01*
X243735833Y-126952380D02*
X243164404Y-126952380D01*
X243450119Y-127952380D02*
X243450119Y-126952380D01*
X242069166Y-127952380D02*
X242069166Y-126952380D01*
X242069166Y-127428571D02*
X241497738Y-127428571D01*
X241497738Y-127952380D02*
X241497738Y-126952380D01*
X241021547Y-127952380D02*
X241021547Y-126952380D01*
X155964404Y-96952380D02*
X155964404Y-95952380D01*
X155392976Y-96952380D01*
X155392976Y-95952380D01*
X154345357Y-96857142D02*
X154392976Y-96904761D01*
X154535833Y-96952380D01*
X154631071Y-96952380D01*
X154773928Y-96904761D01*
X154869166Y-96809523D01*
X154916785Y-96714285D01*
X154964404Y-96523809D01*
X154964404Y-96380952D01*
X154916785Y-96190476D01*
X154869166Y-96095238D01*
X154773928Y-96000000D01*
X154631071Y-95952380D01*
X154535833Y-95952380D01*
X154392976Y-96000000D01*
X154345357Y-96047619D01*
X242512023Y-92266666D02*
X242035833Y-92266666D01*
X242607261Y-92552380D02*
X242273928Y-91552380D01*
X241940595Y-92552380D01*
X241702500Y-91552380D02*
X241464404Y-92552380D01*
X241273928Y-91838095D01*
X241083452Y-92552380D01*
X240845357Y-91552380D01*
X240512023Y-92266666D02*
X240035833Y-92266666D01*
X240607261Y-92552380D02*
X240273928Y-91552380D01*
X239940595Y-92552380D01*
X239607261Y-92552380D02*
X239607261Y-91552380D01*
X239035833Y-92552380D02*
X239464404Y-91980952D01*
X239035833Y-91552380D02*
X239607261Y-92123809D01*
X238607261Y-92028571D02*
X238273928Y-92028571D01*
X238131071Y-92552380D02*
X238607261Y-92552380D01*
X238607261Y-91552380D01*
X238131071Y-91552380D01*
X253412023Y-98904761D02*
X253269166Y-98952380D01*
X253031071Y-98952380D01*
X252935833Y-98904761D01*
X252888214Y-98857142D01*
X252840595Y-98761904D01*
X252840595Y-98666666D01*
X252888214Y-98571428D01*
X252935833Y-98523809D01*
X253031071Y-98476190D01*
X253221547Y-98428571D01*
X253316785Y-98380952D01*
X253364404Y-98333333D01*
X253412023Y-98238095D01*
X253412023Y-98142857D01*
X253364404Y-98047619D01*
X253316785Y-98000000D01*
X253221547Y-97952380D01*
X252983452Y-97952380D01*
X252840595Y-98000000D01*
X252412023Y-98952380D02*
X252412023Y-97952380D01*
X252412023Y-98428571D02*
X251840595Y-98428571D01*
X251840595Y-98952380D02*
X251840595Y-97952380D01*
X251507261Y-97952380D02*
X250935833Y-97952380D01*
X251221547Y-98952380D02*
X251221547Y-97952380D01*
X249840595Y-98952380D02*
X249840595Y-97952380D01*
X249602500Y-97952380D01*
X249459642Y-98000000D01*
X249364404Y-98095238D01*
X249316785Y-98190476D01*
X249269166Y-98380952D01*
X249269166Y-98523809D01*
X249316785Y-98714285D01*
X249364404Y-98809523D01*
X249459642Y-98904761D01*
X249602500Y-98952380D01*
X249840595Y-98952380D01*
X248935833Y-97952380D02*
X248697738Y-98952380D01*
X248507261Y-98238095D01*
X248316785Y-98952380D01*
X248078690Y-97952380D01*
X247697738Y-98952380D02*
X247697738Y-97952380D01*
X247126309Y-98952380D01*
X247126309Y-97952380D01*
X245697738Y-97952380D02*
X245507261Y-97952380D01*
X245412023Y-98000000D01*
X245316785Y-98095238D01*
X245269166Y-98285714D01*
X245269166Y-98619047D01*
X245316785Y-98809523D01*
X245412023Y-98904761D01*
X245507261Y-98952380D01*
X245697738Y-98952380D01*
X245792976Y-98904761D01*
X245888214Y-98809523D01*
X245935833Y-98619047D01*
X245935833Y-98285714D01*
X245888214Y-98095238D01*
X245792976Y-98000000D01*
X245697738Y-97952380D01*
X244840595Y-97952380D02*
X244840595Y-98761904D01*
X244792976Y-98857142D01*
X244745357Y-98904761D01*
X244650119Y-98952380D01*
X244459642Y-98952380D01*
X244364404Y-98904761D01*
X244316785Y-98857142D01*
X244269166Y-98761904D01*
X244269166Y-97952380D01*
X243935833Y-97952380D02*
X243364404Y-97952380D01*
X243650119Y-98952380D02*
X243650119Y-97952380D01*
X141964404Y-96702380D02*
X141964404Y-95702380D01*
X141392976Y-96702380D01*
X141392976Y-95702380D01*
X140345357Y-96607142D02*
X140392976Y-96654761D01*
X140535833Y-96702380D01*
X140631071Y-96702380D01*
X140773928Y-96654761D01*
X140869166Y-96559523D01*
X140916785Y-96464285D01*
X140964404Y-96273809D01*
X140964404Y-96130952D01*
X140916785Y-95940476D01*
X140869166Y-95845238D01*
X140773928Y-95750000D01*
X140631071Y-95702380D01*
X140535833Y-95702380D01*
X140392976Y-95750000D01*
X140345357Y-95797619D01*
D11*
X252085714Y-129992857D02*
X252085714Y-128792857D01*
X251514285Y-129992857D02*
X251514285Y-128792857D01*
X250828571Y-129992857D01*
X250828571Y-128792857D01*
X250428571Y-128792857D02*
X249742857Y-128792857D01*
X250085714Y-129992857D02*
X250085714Y-128792857D01*
X248485714Y-129935714D02*
X248314285Y-129992857D01*
X248028571Y-129992857D01*
X247914285Y-129935714D01*
X247857142Y-129878571D01*
X247800000Y-129764285D01*
X247800000Y-129650000D01*
X247857142Y-129535714D01*
X247914285Y-129478571D01*
X248028571Y-129421428D01*
X248257142Y-129364285D01*
X248371428Y-129307142D01*
X248428571Y-129250000D01*
X248485714Y-129135714D01*
X248485714Y-129021428D01*
X248428571Y-128907142D01*
X248371428Y-128850000D01*
X248257142Y-128792857D01*
X247971428Y-128792857D01*
X247800000Y-128850000D01*
X247457142Y-128792857D02*
X246771428Y-128792857D01*
X247114285Y-129992857D02*
X247114285Y-128792857D01*
X246428571Y-129650000D02*
X245857142Y-129650000D01*
X246542857Y-129992857D02*
X246142857Y-128792857D01*
X245742857Y-129992857D01*
X245514285Y-128792857D02*
X244828571Y-128792857D01*
X245171428Y-129992857D02*
X245171428Y-128792857D01*
X244428571Y-129364285D02*
X244028571Y-129364285D01*
X243857142Y-129992857D02*
X244428571Y-129992857D01*
X244428571Y-128792857D01*
X243857142Y-128792857D01*
X142214285Y-89542857D02*
X142214285Y-88342857D01*
X142214285Y-88914285D02*
X141528571Y-88914285D01*
X141528571Y-89542857D02*
X141528571Y-88342857D01*
X141128571Y-88342857D02*
X140728571Y-89542857D01*
X140328571Y-88342857D01*
X138042857Y-89542857D02*
X138100000Y-89542857D01*
X138214285Y-89485714D01*
X138385714Y-89314285D01*
X138671428Y-88971428D01*
X138785714Y-88800000D01*
X138842857Y-88628571D01*
X138842857Y-88514285D01*
X138785714Y-88400000D01*
X138671428Y-88342857D01*
X138614285Y-88342857D01*
X138500000Y-88400000D01*
X138442857Y-88514285D01*
X138442857Y-88571428D01*
X138500000Y-88685714D01*
X138557142Y-88742857D01*
X138900000Y-88971428D01*
X138957142Y-89028571D01*
X139014285Y-89142857D01*
X139014285Y-89314285D01*
X138957142Y-89428571D01*
X138900000Y-89485714D01*
X138785714Y-89542857D01*
X138614285Y-89542857D01*
X138500000Y-89485714D01*
X138442857Y-89428571D01*
X138271428Y-89200000D01*
X138214285Y-89028571D01*
X138214285Y-88914285D01*
X136785714Y-88342857D02*
X136100000Y-88342857D01*
X136442857Y-89542857D02*
X136442857Y-88342857D01*
X135757142Y-89485714D02*
X135585714Y-89542857D01*
X135300000Y-89542857D01*
X135185714Y-89485714D01*
X135128571Y-89428571D01*
X135071428Y-89314285D01*
X135071428Y-89200000D01*
X135128571Y-89085714D01*
X135185714Y-89028571D01*
X135300000Y-88971428D01*
X135528571Y-88914285D01*
X135642857Y-88857142D01*
X135700000Y-88800000D01*
X135757142Y-88685714D01*
X135757142Y-88571428D01*
X135700000Y-88457142D01*
X135642857Y-88400000D01*
X135528571Y-88342857D01*
X135242857Y-88342857D01*
X135071428Y-88400000D01*
X133642857Y-89542857D02*
X133642857Y-88342857D01*
X133071428Y-89542857D02*
X133071428Y-88342857D01*
X132385714Y-89542857D01*
X132385714Y-88342857D01*
D10*
X141964404Y-98402380D02*
X141964404Y-97402380D01*
X141964404Y-97878571D02*
X141392976Y-97878571D01*
X141392976Y-98402380D02*
X141392976Y-97402380D01*
X141059642Y-97402380D02*
X140726309Y-98402380D01*
X140392976Y-97402380D01*
X139297738Y-98402380D02*
X139297738Y-97402380D01*
X138821547Y-98402380D02*
X138821547Y-97402380D01*
X138250119Y-98402380D01*
X138250119Y-97402380D01*
X155392976Y-95252380D02*
X155726309Y-94776190D01*
X155964404Y-95252380D02*
X155964404Y-94252380D01*
X155583452Y-94252380D01*
X155488214Y-94300000D01*
X155440595Y-94347619D01*
X155392976Y-94442857D01*
X155392976Y-94585714D01*
X155440595Y-94680952D01*
X155488214Y-94728571D01*
X155583452Y-94776190D01*
X155964404Y-94776190D01*
X154964404Y-94728571D02*
X154631071Y-94728571D01*
X154488214Y-95252380D02*
X154964404Y-95252380D01*
X154964404Y-94252380D01*
X154488214Y-94252380D01*
X154107261Y-95204761D02*
X153964404Y-95252380D01*
X153726309Y-95252380D01*
X153631071Y-95204761D01*
X153583452Y-95157142D01*
X153535833Y-95061904D01*
X153535833Y-94966666D01*
X153583452Y-94871428D01*
X153631071Y-94823809D01*
X153726309Y-94776190D01*
X153916785Y-94728571D01*
X154012023Y-94680952D01*
X154059642Y-94633333D01*
X154107261Y-94538095D01*
X154107261Y-94442857D01*
X154059642Y-94347619D01*
X154012023Y-94300000D01*
X153916785Y-94252380D01*
X153678690Y-94252380D01*
X153535833Y-94300000D01*
X152012023Y-94728571D02*
X151869166Y-94776190D01*
X151821547Y-94823809D01*
X151773928Y-94919047D01*
X151773928Y-95061904D01*
X151821547Y-95157142D01*
X151869166Y-95204761D01*
X151964404Y-95252380D01*
X152345357Y-95252380D01*
X152345357Y-94252380D01*
X152012023Y-94252380D01*
X151916785Y-94300000D01*
X151869166Y-94347619D01*
X151821547Y-94442857D01*
X151821547Y-94538095D01*
X151869166Y-94633333D01*
X151916785Y-94680952D01*
X152012023Y-94728571D01*
X152345357Y-94728571D01*
X253212023Y-126404761D02*
X253069166Y-126452380D01*
X252831071Y-126452380D01*
X252735833Y-126404761D01*
X252688214Y-126357142D01*
X252640595Y-126261904D01*
X252640595Y-126166666D01*
X252688214Y-126071428D01*
X252735833Y-126023809D01*
X252831071Y-125976190D01*
X253021547Y-125928571D01*
X253116785Y-125880952D01*
X253164404Y-125833333D01*
X253212023Y-125738095D01*
X253212023Y-125642857D01*
X253164404Y-125547619D01*
X253116785Y-125500000D01*
X253021547Y-125452380D01*
X252783452Y-125452380D01*
X252640595Y-125500000D01*
X252212023Y-126452380D02*
X252212023Y-125452380D01*
X252212023Y-125928571D02*
X251640595Y-125928571D01*
X251640595Y-126452380D02*
X251640595Y-125452380D01*
X251307261Y-125452380D02*
X250735833Y-125452380D01*
X251021547Y-126452380D02*
X251021547Y-125452380D01*
X249640595Y-126452380D02*
X249640595Y-125452380D01*
X249402500Y-125452380D01*
X249259642Y-125500000D01*
X249164404Y-125595238D01*
X249116785Y-125690476D01*
X249069166Y-125880952D01*
X249069166Y-126023809D01*
X249116785Y-126214285D01*
X249164404Y-126309523D01*
X249259642Y-126404761D01*
X249402500Y-126452380D01*
X249640595Y-126452380D01*
X248735833Y-125452380D02*
X248497738Y-126452380D01*
X248307261Y-125738095D01*
X248116785Y-126452380D01*
X247878690Y-125452380D01*
X247497738Y-126452380D02*
X247497738Y-125452380D01*
X246926309Y-126452380D01*
X246926309Y-125452380D01*
X245497738Y-125452380D02*
X245307261Y-125452380D01*
X245212023Y-125500000D01*
X245116785Y-125595238D01*
X245069166Y-125785714D01*
X245069166Y-126119047D01*
X245116785Y-126309523D01*
X245212023Y-126404761D01*
X245307261Y-126452380D01*
X245497738Y-126452380D01*
X245592976Y-126404761D01*
X245688214Y-126309523D01*
X245735833Y-126119047D01*
X245735833Y-125785714D01*
X245688214Y-125595238D01*
X245592976Y-125500000D01*
X245497738Y-125452380D01*
X244640595Y-125452380D02*
X244640595Y-126261904D01*
X244592976Y-126357142D01*
X244545357Y-126404761D01*
X244450119Y-126452380D01*
X244259642Y-126452380D01*
X244164404Y-126404761D01*
X244116785Y-126357142D01*
X244069166Y-126261904D01*
X244069166Y-125452380D01*
X243735833Y-125452380D02*
X243164404Y-125452380D01*
X243450119Y-126452380D02*
X243450119Y-125452380D01*
X253412023Y-97404761D02*
X253269166Y-97452380D01*
X253031071Y-97452380D01*
X252935833Y-97404761D01*
X252888214Y-97357142D01*
X252840595Y-97261904D01*
X252840595Y-97166666D01*
X252888214Y-97071428D01*
X252935833Y-97023809D01*
X253031071Y-96976190D01*
X253221547Y-96928571D01*
X253316785Y-96880952D01*
X253364404Y-96833333D01*
X253412023Y-96738095D01*
X253412023Y-96642857D01*
X253364404Y-96547619D01*
X253316785Y-96500000D01*
X253221547Y-96452380D01*
X252983452Y-96452380D01*
X252840595Y-96500000D01*
X252412023Y-97452380D02*
X252412023Y-96452380D01*
X252412023Y-96928571D02*
X251840595Y-96928571D01*
X251840595Y-97452380D02*
X251840595Y-96452380D01*
X251507261Y-96452380D02*
X250935833Y-96452380D01*
X251221547Y-97452380D02*
X251221547Y-96452380D01*
X249840595Y-97452380D02*
X249840595Y-96452380D01*
X249602500Y-96452380D01*
X249459642Y-96500000D01*
X249364404Y-96595238D01*
X249316785Y-96690476D01*
X249269166Y-96880952D01*
X249269166Y-97023809D01*
X249316785Y-97214285D01*
X249364404Y-97309523D01*
X249459642Y-97404761D01*
X249602500Y-97452380D01*
X249840595Y-97452380D01*
X248935833Y-96452380D02*
X248697738Y-97452380D01*
X248507261Y-96738095D01*
X248316785Y-97452380D01*
X248078690Y-96452380D01*
X247697738Y-97452380D02*
X247697738Y-96452380D01*
X247126309Y-97452380D01*
X247126309Y-96452380D01*
X245888214Y-97452380D02*
X245888214Y-96452380D01*
X245412023Y-97452380D02*
X245412023Y-96452380D01*
X244840595Y-97452380D01*
X244840595Y-96452380D01*
X142107261Y-90802380D02*
X141535833Y-90802380D01*
X141821547Y-91802380D02*
X141821547Y-90802380D01*
X141250119Y-91754761D02*
X141107261Y-91802380D01*
X140869166Y-91802380D01*
X140773928Y-91754761D01*
X140726309Y-91707142D01*
X140678690Y-91611904D01*
X140678690Y-91516666D01*
X140726309Y-91421428D01*
X140773928Y-91373809D01*
X140869166Y-91326190D01*
X141059642Y-91278571D01*
X141154880Y-91230952D01*
X141202500Y-91183333D01*
X141250119Y-91088095D01*
X141250119Y-90992857D01*
X141202500Y-90897619D01*
X141154880Y-90850000D01*
X141059642Y-90802380D01*
X140821547Y-90802380D01*
X140678690Y-90850000D01*
X140250119Y-91421428D02*
X139488214Y-91421428D01*
X141392976Y-95202380D02*
X141726309Y-94726190D01*
X141964404Y-95202380D02*
X141964404Y-94202380D01*
X141583452Y-94202380D01*
X141488214Y-94250000D01*
X141440595Y-94297619D01*
X141392976Y-94392857D01*
X141392976Y-94535714D01*
X141440595Y-94630952D01*
X141488214Y-94678571D01*
X141583452Y-94726190D01*
X141964404Y-94726190D01*
X140964404Y-94678571D02*
X140631071Y-94678571D01*
X140488214Y-95202380D02*
X140964404Y-95202380D01*
X140964404Y-94202380D01*
X140488214Y-94202380D01*
X140107261Y-95154761D02*
X139964404Y-95202380D01*
X139726309Y-95202380D01*
X139631071Y-95154761D01*
X139583452Y-95107142D01*
X139535833Y-95011904D01*
X139535833Y-94916666D01*
X139583452Y-94821428D01*
X139631071Y-94773809D01*
X139726309Y-94726190D01*
X139916785Y-94678571D01*
X140012023Y-94630952D01*
X140059642Y-94583333D01*
X140107261Y-94488095D01*
X140107261Y-94392857D01*
X140059642Y-94297619D01*
X140012023Y-94250000D01*
X139916785Y-94202380D01*
X139678690Y-94202380D01*
X139535833Y-94250000D01*
X138012023Y-94678571D02*
X137869166Y-94726190D01*
X137821547Y-94773809D01*
X137773928Y-94869047D01*
X137773928Y-95011904D01*
X137821547Y-95107142D01*
X137869166Y-95154761D01*
X137964404Y-95202380D01*
X138345357Y-95202380D01*
X138345357Y-94202380D01*
X138012023Y-94202380D01*
X137916785Y-94250000D01*
X137869166Y-94297619D01*
X137821547Y-94392857D01*
X137821547Y-94488095D01*
X137869166Y-94583333D01*
X137916785Y-94630952D01*
X138012023Y-94678571D01*
X138345357Y-94678571D01*
X242607261Y-82552380D02*
X242035833Y-82552380D01*
X242321547Y-83552380D02*
X242321547Y-82552380D01*
X241702500Y-83552380D02*
X241702500Y-82552380D01*
X241226309Y-83552380D02*
X241226309Y-82552380D01*
X240892976Y-83266666D01*
X240559642Y-82552380D01*
X240559642Y-83552380D01*
X240083452Y-83552380D02*
X240083452Y-82552380D01*
X239607261Y-83552380D02*
X239607261Y-82552380D01*
X239035833Y-83552380D01*
X239035833Y-82552380D01*
X238035833Y-82600000D02*
X238131071Y-82552380D01*
X238273928Y-82552380D01*
X238416785Y-82600000D01*
X238512023Y-82695238D01*
X238559642Y-82790476D01*
X238607261Y-82980952D01*
X238607261Y-83123809D01*
X238559642Y-83314285D01*
X238512023Y-83409523D01*
X238416785Y-83504761D01*
X238273928Y-83552380D01*
X238178690Y-83552380D01*
X238035833Y-83504761D01*
X237988214Y-83457142D01*
X237988214Y-83123809D01*
X238178690Y-83123809D01*
X242464404Y-89552380D02*
X242464404Y-88552380D01*
X242083452Y-88552380D01*
X241988214Y-88600000D01*
X241940595Y-88647619D01*
X241892976Y-88742857D01*
X241892976Y-88885714D01*
X241940595Y-88980952D01*
X241988214Y-89028571D01*
X242083452Y-89076190D01*
X242464404Y-89076190D01*
X240892976Y-89552380D02*
X241226309Y-89076190D01*
X241464404Y-89552380D02*
X241464404Y-88552380D01*
X241083452Y-88552380D01*
X240988214Y-88600000D01*
X240940595Y-88647619D01*
X240892976Y-88742857D01*
X240892976Y-88885714D01*
X240940595Y-88980952D01*
X240988214Y-89028571D01*
X241083452Y-89076190D01*
X241464404Y-89076190D01*
X240464404Y-89028571D02*
X240131071Y-89028571D01*
X239988214Y-89552380D02*
X240464404Y-89552380D01*
X240464404Y-88552380D01*
X239988214Y-88552380D01*
X238226309Y-89457142D02*
X238273928Y-89504761D01*
X238416785Y-89552380D01*
X238512023Y-89552380D01*
X238654880Y-89504761D01*
X238750119Y-89409523D01*
X238797738Y-89314285D01*
X238845357Y-89123809D01*
X238845357Y-88980952D01*
X238797738Y-88790476D01*
X238750119Y-88695238D01*
X238654880Y-88600000D01*
X238512023Y-88552380D01*
X238416785Y-88552380D01*
X238273928Y-88600000D01*
X238226309Y-88647619D01*
X237797738Y-89552380D02*
X237797738Y-88552380D01*
X237797738Y-89028571D02*
X237226309Y-89028571D01*
X237226309Y-89552380D02*
X237226309Y-88552380D01*
X236178690Y-89552380D02*
X236512023Y-89076190D01*
X236750119Y-89552380D02*
X236750119Y-88552380D01*
X236369166Y-88552380D01*
X236273928Y-88600000D01*
X236226309Y-88647619D01*
X236178690Y-88742857D01*
X236178690Y-88885714D01*
X236226309Y-88980952D01*
X236273928Y-89028571D01*
X236369166Y-89076190D01*
X236750119Y-89076190D01*
X235226309Y-88600000D02*
X235321547Y-88552380D01*
X235464404Y-88552380D01*
X235607261Y-88600000D01*
X235702500Y-88695238D01*
X235750119Y-88790476D01*
X235797738Y-88980952D01*
X235797738Y-89123809D01*
X235750119Y-89314285D01*
X235702500Y-89409523D01*
X235607261Y-89504761D01*
X235464404Y-89552380D01*
X235369166Y-89552380D01*
X235226309Y-89504761D01*
X235178690Y-89457142D01*
X235178690Y-89123809D01*
X235369166Y-89123809D01*
X233988214Y-89028571D02*
X233654880Y-89028571D01*
X233512023Y-89552380D02*
X233988214Y-89552380D01*
X233988214Y-88552380D01*
X233512023Y-88552380D01*
X233083452Y-89552380D02*
X233083452Y-88552380D01*
X232512023Y-89552380D01*
X232512023Y-88552380D01*
X155964404Y-100352380D02*
X155964404Y-99352380D01*
X155964404Y-99828571D02*
X155392976Y-99828571D01*
X155392976Y-100352380D02*
X155392976Y-99352380D01*
X155059642Y-99352380D02*
X154726309Y-100352380D01*
X154392976Y-99352380D01*
X152773928Y-99400000D02*
X152869166Y-99352380D01*
X153012023Y-99352380D01*
X153154880Y-99400000D01*
X153250119Y-99495238D01*
X153297738Y-99590476D01*
X153345357Y-99780952D01*
X153345357Y-99923809D01*
X153297738Y-100114285D01*
X153250119Y-100209523D01*
X153154880Y-100304761D01*
X153012023Y-100352380D01*
X152916785Y-100352380D01*
X152773928Y-100304761D01*
X152726309Y-100257142D01*
X152726309Y-99923809D01*
X152916785Y-99923809D01*
X152297738Y-100352380D02*
X152297738Y-99352380D01*
X151726309Y-100352380D01*
X151726309Y-99352380D01*
X151250119Y-100352380D02*
X151250119Y-99352380D01*
X151012023Y-99352380D01*
X150869166Y-99400000D01*
X150773928Y-99495238D01*
X150726309Y-99590476D01*
X150678690Y-99780952D01*
X150678690Y-99923809D01*
X150726309Y-100114285D01*
X150773928Y-100209523D01*
X150869166Y-100304761D01*
X151012023Y-100352380D01*
X151250119Y-100352380D01*
X155964404Y-93552380D02*
X155964404Y-92552380D01*
X155392976Y-93552380D01*
X155392976Y-92552380D01*
X154345357Y-93457142D02*
X154392976Y-93504761D01*
X154535833Y-93552380D01*
X154631071Y-93552380D01*
X154773928Y-93504761D01*
X154869166Y-93409523D01*
X154916785Y-93314285D01*
X154964404Y-93123809D01*
X154964404Y-92980952D01*
X154916785Y-92790476D01*
X154869166Y-92695238D01*
X154773928Y-92600000D01*
X154631071Y-92552380D01*
X154535833Y-92552380D01*
X154392976Y-92600000D01*
X154345357Y-92647619D01*
X141964404Y-93502380D02*
X141964404Y-92502380D01*
X141392976Y-93502380D01*
X141392976Y-92502380D01*
X140345357Y-93407142D02*
X140392976Y-93454761D01*
X140535833Y-93502380D01*
X140631071Y-93502380D01*
X140773928Y-93454761D01*
X140869166Y-93359523D01*
X140916785Y-93264285D01*
X140964404Y-93073809D01*
X140964404Y-92930952D01*
X140916785Y-92740476D01*
X140869166Y-92645238D01*
X140773928Y-92550000D01*
X140631071Y-92502380D01*
X140535833Y-92502380D01*
X140392976Y-92550000D01*
X140345357Y-92597619D01*
X253164404Y-116952380D02*
X253164404Y-115952380D01*
X252783452Y-115952380D01*
X252688214Y-116000000D01*
X252640595Y-116047619D01*
X252592976Y-116142857D01*
X252592976Y-116285714D01*
X252640595Y-116380952D01*
X252688214Y-116428571D01*
X252783452Y-116476190D01*
X253164404Y-116476190D01*
X251592976Y-116952380D02*
X251926309Y-116476190D01*
X252164404Y-116952380D02*
X252164404Y-115952380D01*
X251783452Y-115952380D01*
X251688214Y-116000000D01*
X251640595Y-116047619D01*
X251592976Y-116142857D01*
X251592976Y-116285714D01*
X251640595Y-116380952D01*
X251688214Y-116428571D01*
X251783452Y-116476190D01*
X252164404Y-116476190D01*
X251164404Y-116428571D02*
X250831071Y-116428571D01*
X250688214Y-116952380D02*
X251164404Y-116952380D01*
X251164404Y-115952380D01*
X250688214Y-115952380D01*
X248926309Y-116857142D02*
X248973928Y-116904761D01*
X249116785Y-116952380D01*
X249212023Y-116952380D01*
X249354880Y-116904761D01*
X249450119Y-116809523D01*
X249497738Y-116714285D01*
X249545357Y-116523809D01*
X249545357Y-116380952D01*
X249497738Y-116190476D01*
X249450119Y-116095238D01*
X249354880Y-116000000D01*
X249212023Y-115952380D01*
X249116785Y-115952380D01*
X248973928Y-116000000D01*
X248926309Y-116047619D01*
X248497738Y-116952380D02*
X248497738Y-115952380D01*
X248497738Y-116428571D02*
X247926309Y-116428571D01*
X247926309Y-116952380D02*
X247926309Y-115952380D01*
X246878690Y-116952380D02*
X247212023Y-116476190D01*
X247450119Y-116952380D02*
X247450119Y-115952380D01*
X247069166Y-115952380D01*
X246973928Y-116000000D01*
X246926309Y-116047619D01*
X246878690Y-116142857D01*
X246878690Y-116285714D01*
X246926309Y-116380952D01*
X246973928Y-116428571D01*
X247069166Y-116476190D01*
X247450119Y-116476190D01*
X245926309Y-116000000D02*
X246021547Y-115952380D01*
X246164404Y-115952380D01*
X246307261Y-116000000D01*
X246402500Y-116095238D01*
X246450119Y-116190476D01*
X246497738Y-116380952D01*
X246497738Y-116523809D01*
X246450119Y-116714285D01*
X246402500Y-116809523D01*
X246307261Y-116904761D01*
X246164404Y-116952380D01*
X246069166Y-116952380D01*
X245926309Y-116904761D01*
X245878690Y-116857142D01*
X245878690Y-116523809D01*
X246069166Y-116523809D01*
X244688214Y-116428571D02*
X244354880Y-116428571D01*
X244212023Y-116952380D02*
X244688214Y-116952380D01*
X244688214Y-115952380D01*
X244212023Y-115952380D01*
X243783452Y-116952380D02*
X243783452Y-115952380D01*
X243212023Y-116952380D01*
X243212023Y-115952380D01*
X242131071Y-86028571D02*
X242464404Y-86028571D01*
X242464404Y-86552380D02*
X242464404Y-85552380D01*
X241988214Y-85552380D01*
X241654880Y-86266666D02*
X241178690Y-86266666D01*
X241750119Y-86552380D02*
X241416785Y-85552380D01*
X241083452Y-86552380D01*
X240750119Y-85552380D02*
X240750119Y-86361904D01*
X240702500Y-86457142D01*
X240654880Y-86504761D01*
X240559642Y-86552380D01*
X240369166Y-86552380D01*
X240273928Y-86504761D01*
X240226309Y-86457142D01*
X240178690Y-86361904D01*
X240178690Y-85552380D01*
X239226309Y-86552380D02*
X239702500Y-86552380D01*
X239702500Y-85552380D01*
X239035833Y-85552380D02*
X238464404Y-85552380D01*
X238750119Y-86552380D02*
X238750119Y-85552380D01*
D11*
X242000000Y-99385714D02*
X241828571Y-99442857D01*
X241542857Y-99442857D01*
X241428571Y-99385714D01*
X241371428Y-99328571D01*
X241314285Y-99214285D01*
X241314285Y-99100000D01*
X241371428Y-98985714D01*
X241428571Y-98928571D01*
X241542857Y-98871428D01*
X241771428Y-98814285D01*
X241885714Y-98757142D01*
X241942857Y-98700000D01*
X242000000Y-98585714D01*
X242000000Y-98471428D01*
X241942857Y-98357142D01*
X241885714Y-98300000D01*
X241771428Y-98242857D01*
X241485714Y-98242857D01*
X241314285Y-98300000D01*
X240800000Y-98985714D02*
X239885714Y-98985714D01*
X239314285Y-99442857D02*
X239314285Y-98242857D01*
X239028571Y-98242857D01*
X238857142Y-98300000D01*
X238742857Y-98414285D01*
X238685714Y-98528571D01*
X238628571Y-98757142D01*
X238628571Y-98928571D01*
X238685714Y-99157142D01*
X238742857Y-99271428D01*
X238857142Y-99385714D01*
X239028571Y-99442857D01*
X239314285Y-99442857D01*
X238228571Y-98242857D02*
X237942857Y-99442857D01*
X237714285Y-98585714D01*
X237485714Y-99442857D01*
X237200000Y-98242857D01*
X236742857Y-99442857D02*
X236742857Y-98242857D01*
X236057142Y-99442857D01*
X236057142Y-98242857D01*
D10*
X253212023Y-112004761D02*
X253069166Y-112052380D01*
X252831071Y-112052380D01*
X252735833Y-112004761D01*
X252688214Y-111957142D01*
X252640595Y-111861904D01*
X252640595Y-111766666D01*
X252688214Y-111671428D01*
X252735833Y-111623809D01*
X252831071Y-111576190D01*
X253021547Y-111528571D01*
X253116785Y-111480952D01*
X253164404Y-111433333D01*
X253212023Y-111338095D01*
X253212023Y-111242857D01*
X253164404Y-111147619D01*
X253116785Y-111100000D01*
X253021547Y-111052380D01*
X252783452Y-111052380D01*
X252640595Y-111100000D01*
X252212023Y-112052380D02*
X252212023Y-111052380D01*
X252212023Y-111528571D02*
X251640595Y-111528571D01*
X251640595Y-112052380D02*
X251640595Y-111052380D01*
X251307261Y-111052380D02*
X250735833Y-111052380D01*
X251021547Y-112052380D02*
X251021547Y-111052380D01*
X249640595Y-112052380D02*
X249640595Y-111052380D01*
X249402500Y-111052380D01*
X249259642Y-111100000D01*
X249164404Y-111195238D01*
X249116785Y-111290476D01*
X249069166Y-111480952D01*
X249069166Y-111623809D01*
X249116785Y-111814285D01*
X249164404Y-111909523D01*
X249259642Y-112004761D01*
X249402500Y-112052380D01*
X249640595Y-112052380D01*
X248735833Y-111052380D02*
X248497738Y-112052380D01*
X248307261Y-111338095D01*
X248116785Y-112052380D01*
X247878690Y-111052380D01*
X247497738Y-112052380D02*
X247497738Y-111052380D01*
X246926309Y-112052380D01*
X246926309Y-111052380D01*
X245497738Y-111052380D02*
X245307261Y-111052380D01*
X245212023Y-111100000D01*
X245116785Y-111195238D01*
X245069166Y-111385714D01*
X245069166Y-111719047D01*
X245116785Y-111909523D01*
X245212023Y-112004761D01*
X245307261Y-112052380D01*
X245497738Y-112052380D01*
X245592976Y-112004761D01*
X245688214Y-111909523D01*
X245735833Y-111719047D01*
X245735833Y-111385714D01*
X245688214Y-111195238D01*
X245592976Y-111100000D01*
X245497738Y-111052380D01*
X244640595Y-111052380D02*
X244640595Y-111861904D01*
X244592976Y-111957142D01*
X244545357Y-112004761D01*
X244450119Y-112052380D01*
X244259642Y-112052380D01*
X244164404Y-112004761D01*
X244116785Y-111957142D01*
X244069166Y-111861904D01*
X244069166Y-111052380D01*
X243735833Y-111052380D02*
X243164404Y-111052380D01*
X243450119Y-112052380D02*
X243450119Y-111052380D01*
X242069166Y-112052380D02*
X242069166Y-111052380D01*
X242069166Y-111528571D02*
X241497738Y-111528571D01*
X241497738Y-112052380D02*
X241497738Y-111052380D01*
X241021547Y-112052380D02*
X241021547Y-111052380D01*
D11*
X155500000Y-89442857D02*
X155900000Y-88871428D01*
X156185714Y-89442857D02*
X156185714Y-88242857D01*
X155728571Y-88242857D01*
X155614285Y-88300000D01*
X155557142Y-88357142D01*
X155500000Y-88471428D01*
X155500000Y-88642857D01*
X155557142Y-88757142D01*
X155614285Y-88814285D01*
X155728571Y-88871428D01*
X156185714Y-88871428D01*
X154985714Y-88814285D02*
X154585714Y-88814285D01*
X154414285Y-89442857D02*
X154985714Y-89442857D01*
X154985714Y-88242857D01*
X154414285Y-88242857D01*
X153957142Y-89385714D02*
X153785714Y-89442857D01*
X153500000Y-89442857D01*
X153385714Y-89385714D01*
X153328571Y-89328571D01*
X153271428Y-89214285D01*
X153271428Y-89100000D01*
X153328571Y-88985714D01*
X153385714Y-88928571D01*
X153500000Y-88871428D01*
X153728571Y-88814285D01*
X153842857Y-88757142D01*
X153900000Y-88700000D01*
X153957142Y-88585714D01*
X153957142Y-88471428D01*
X153900000Y-88357142D01*
X153842857Y-88300000D01*
X153728571Y-88242857D01*
X153442857Y-88242857D01*
X153271428Y-88300000D01*
X150985714Y-88185714D02*
X152014285Y-89728571D01*
X149842857Y-88242857D02*
X149157142Y-88242857D01*
X149500000Y-89442857D02*
X149500000Y-88242857D01*
X148757142Y-89442857D02*
X148757142Y-88242857D01*
X148757142Y-88814285D02*
X148071428Y-88814285D01*
X148071428Y-89442857D02*
X148071428Y-88242857D01*
X147500000Y-88814285D02*
X147100000Y-88814285D01*
X146928571Y-89442857D02*
X147500000Y-89442857D01*
X147500000Y-88242857D01*
X146928571Y-88242857D01*
X145728571Y-89442857D02*
X146128571Y-88871428D01*
X146414285Y-89442857D02*
X146414285Y-88242857D01*
X145957142Y-88242857D01*
X145842857Y-88300000D01*
X145785714Y-88357142D01*
X145728571Y-88471428D01*
X145728571Y-88642857D01*
X145785714Y-88757142D01*
X145842857Y-88814285D01*
X145957142Y-88871428D01*
X146414285Y-88871428D01*
X145214285Y-89442857D02*
X145214285Y-88242857D01*
X144814285Y-89100000D01*
X144414285Y-88242857D01*
X144414285Y-89442857D01*
X242014285Y-96542857D02*
X242014285Y-95342857D01*
X241728571Y-95342857D01*
X241557142Y-95400000D01*
X241442857Y-95514285D01*
X241385714Y-95628571D01*
X241328571Y-95857142D01*
X241328571Y-96028571D01*
X241385714Y-96257142D01*
X241442857Y-96371428D01*
X241557142Y-96485714D01*
X241728571Y-96542857D01*
X242014285Y-96542857D01*
X240814285Y-96542857D02*
X240814285Y-95342857D01*
X240300000Y-96200000D02*
X239728571Y-96200000D01*
X240414285Y-96542857D02*
X240014285Y-95342857D01*
X239614285Y-96542857D01*
X238585714Y-95400000D02*
X238700000Y-95342857D01*
X238871428Y-95342857D01*
X239042857Y-95400000D01*
X239157142Y-95514285D01*
X239214285Y-95628571D01*
X239271428Y-95857142D01*
X239271428Y-96028571D01*
X239214285Y-96257142D01*
X239157142Y-96371428D01*
X239042857Y-96485714D01*
X238871428Y-96542857D01*
X238757142Y-96542857D01*
X238585714Y-96485714D01*
X238528571Y-96428571D01*
X238528571Y-96028571D01*
X238757142Y-96028571D01*
D10*
X155392976Y-91852380D02*
X155726309Y-91376190D01*
X155964404Y-91852380D02*
X155964404Y-90852380D01*
X155583452Y-90852380D01*
X155488214Y-90900000D01*
X155440595Y-90947619D01*
X155392976Y-91042857D01*
X155392976Y-91185714D01*
X155440595Y-91280952D01*
X155488214Y-91328571D01*
X155583452Y-91376190D01*
X155964404Y-91376190D01*
X154964404Y-91328571D02*
X154631071Y-91328571D01*
X154488214Y-91852380D02*
X154964404Y-91852380D01*
X154964404Y-90852380D01*
X154488214Y-90852380D01*
X154107261Y-91804761D02*
X153964404Y-91852380D01*
X153726309Y-91852380D01*
X153631071Y-91804761D01*
X153583452Y-91757142D01*
X153535833Y-91661904D01*
X153535833Y-91566666D01*
X153583452Y-91471428D01*
X153631071Y-91423809D01*
X153726309Y-91376190D01*
X153916785Y-91328571D01*
X154012023Y-91280952D01*
X154059642Y-91233333D01*
X154107261Y-91138095D01*
X154107261Y-91042857D01*
X154059642Y-90947619D01*
X154012023Y-90900000D01*
X153916785Y-90852380D01*
X153678690Y-90852380D01*
X153535833Y-90900000D01*
X152392976Y-91566666D02*
X151916785Y-91566666D01*
X152488214Y-91852380D02*
X152154880Y-90852380D01*
X151821547Y-91852380D01*
D11*
X127257142Y-143100000D02*
X126685714Y-143100000D01*
X127371428Y-143442857D02*
X126971428Y-142242857D01*
X126571428Y-143442857D01*
X126171428Y-143442857D02*
X126171428Y-142242857D01*
X125028571Y-143442857D02*
X125600000Y-143442857D01*
X125600000Y-142242857D01*
%LPC*%
D12*
X192420000Y-84650000D03*
X189880000Y-84650000D03*
X182260000Y-84650000D03*
X177180000Y-84650000D03*
D13*
X232875000Y-85800000D03*
D14*
X229875000Y-85800000D03*
D15*
X231375000Y-81480000D03*
D16*
X244530000Y-92100000D03*
X244530000Y-89100000D03*
X244530000Y-86100000D03*
X244530000Y-83100000D03*
D17*
X244530000Y-80100000D03*
D15*
X248850000Y-89950000D03*
X248850000Y-82250000D03*
D18*
X166400000Y-93147349D03*
D19*
X166400000Y-96647349D03*
D18*
X219900000Y-113000000D03*
D19*
X219900000Y-111000000D03*
D18*
X239000000Y-111300000D03*
D19*
X239000000Y-113800000D03*
D20*
X225400000Y-100625000D03*
D21*
X225400000Y-110825000D03*
X225400000Y-118525000D03*
D22*
X233000000Y-100625000D03*
D23*
X124300000Y-127385000D03*
X124300000Y-119785000D03*
X124300000Y-100085000D03*
X124300000Y-92485000D03*
D16*
X244530000Y-109600000D03*
X244530000Y-106600000D03*
X244530000Y-103600000D03*
D17*
X244530000Y-100600000D03*
D15*
X248850000Y-102750000D03*
X248850000Y-107450000D03*
D20*
X201025000Y-125000000D03*
D21*
X211225000Y-125000000D03*
X218925000Y-125000000D03*
D22*
X201025000Y-117400000D03*
D18*
X198517621Y-92400000D03*
D19*
X201017621Y-92400000D03*
D18*
X145462500Y-122944888D03*
D19*
X145462500Y-124944888D03*
D18*
X166244888Y-119200000D03*
D19*
X168244888Y-119200000D03*
D24*
X173100000Y-127000000D03*
X238400000Y-127000000D03*
X200500000Y-81200000D03*
D13*
X221375000Y-85800000D03*
D14*
X218375000Y-85800000D03*
D15*
X219875000Y-81480000D03*
D16*
X129545000Y-136825000D03*
D25*
X129545000Y-139825000D03*
D15*
X125225000Y-138325000D03*
D18*
X179450000Y-105725000D03*
D26*
X179450000Y-108265000D03*
X189610000Y-108265000D03*
X189610000Y-105725000D03*
D13*
X168200000Y-85770000D03*
X165200000Y-85770000D03*
X162200000Y-85770000D03*
X159200000Y-85770000D03*
X156200000Y-85770000D03*
D14*
X153200000Y-85770000D03*
D15*
X155350000Y-81450000D03*
X166050000Y-81450000D03*
D16*
X244530000Y-124100000D03*
X244530000Y-121100000D03*
D17*
X244530000Y-118100000D03*
D15*
X248850000Y-121100000D03*
D18*
X179450000Y-96925000D03*
D26*
X179450000Y-99465000D03*
X189610000Y-99465000D03*
X189610000Y-96925000D03*
D18*
X179450000Y-114525000D03*
D26*
X179450000Y-117065000D03*
X189610000Y-117065000D03*
X189610000Y-114525000D03*
D13*
X144800000Y-85770000D03*
X141800000Y-85770000D03*
X138800000Y-85770000D03*
X135800000Y-85770000D03*
X132800000Y-85770000D03*
D14*
X129800000Y-85770000D03*
D15*
X131950000Y-81450000D03*
X142650000Y-81450000D03*
M02*
