M48
; DRILL file {KiCad (6.0.5)} date Tue 14 Jun 2022 16:37:24 BST
; FORMAT={-:-/ absolute / metric / decimal}
; #@! TF.CreationDate,2022-06-14T16:37:24+01:00
; #@! TF.GenerationSoftware,Kicad,Pcbnew,(6.0.5)
; #@! TF.FileFunction,Plated,1,2,PTH
FMAT,2
METRIC
; #@! TA.AperFunction,Plated,PTH,ViaDrill
T1C0.300
; #@! TA.AperFunction,Plated,PTH,ComponentDrill
T2C0.800
; #@! TA.AperFunction,Plated,PTH,ComponentDrill
T3C1.000
; #@! TA.AperFunction,Plated,PTH,ComponentDrill
T4C1.020
; #@! TA.AperFunction,Plated,PTH,ComponentDrill
T5C1.300
; #@! TA.AperFunction,Plated,PTH,ComponentDrill
T6C1.500
; #@! TA.AperFunction,Plated,PTH,ComponentDrill
T7C1.800
%
G90
G05
T1
X129.6Y-129.7
X131.1Y-132.1
X137.2Y-145.38
X137.9Y-120.2
X140.8Y-134.08
X141.6Y-122.0
X142.9Y-117.0
X155.5Y-126.7
X156.4Y-124.2
X156.8Y-92.4
X158.6Y-118.0
X159.5Y-136.38
X160.8Y-104.6
X162.7Y-116.1
X163.2Y-98.9
X164.0Y-116.1
X164.8Y-103.3
X165.0Y-124.2
X165.4Y-107.4
X166.2Y-104.7
X166.3Y-100.1
X166.7Y-116.0
X167.4Y-123.3
X168.0Y-100.1
X168.3Y-114.2
X172.2Y-110.4
X172.5Y-121.6
X172.5Y-122.6
X173.5Y-120.6
X173.5Y-121.6
X173.5Y-122.6
X174.4Y-102.7
X174.4Y-104.2
X174.4Y-110.1
X176.0Y-102.7
X176.0Y-110.1
X176.4Y-90.0
X177.6Y-102.7
X177.6Y-104.2
X177.6Y-110.1
X194.5Y-109.9
X194.9Y-115.6
X194.9Y-118.5
X196.1Y-115.6
X196.1Y-118.5
X197.3Y-115.6
X197.3Y-118.5
X200.4Y-99.7
X201.7Y-111.8
X202.7Y-98.5
X203.0Y-105.5
X203.0Y-109.8
X204.2Y-101.2
X206.9Y-102.5
X207.4Y-105.3
X207.4Y-106.7
X207.8Y-112.6
X208.3Y-88.4
X210.198Y-88.624
X211.7Y-94.7
X211.7Y-104.5
X212.099Y-89.599
X212.1Y-113.1
X214.8Y-90.3
X215.3Y-92.8
X215.5Y-96.3
X215.6Y-99.3
X216.4Y-98.5
X216.5Y-89.3
X216.5Y-102.7
X219.7Y-90.4
X221.8Y-103.0
X221.9Y-92.0
X221.9Y-123.2
X222.1Y-93.9
X222.5Y-97.7
X224.8Y-105.2
X224.8Y-108.1
X226.0Y-105.2
X226.0Y-108.1
X227.2Y-105.2
X227.2Y-108.1
X228.3Y-80.6
X229.2Y-123.2
X229.4Y-99.0
X230.4Y-96.5
X235.7Y-108.4
X235.7Y-109.9
X235.7Y-111.3
X235.8Y-119.0
X236.3Y-107.1
X236.5Y-100.6
X236.5Y-101.9
X236.5Y-103.2
X237.1Y-108.4
X237.1Y-109.9
X237.1Y-111.3
X238.7Y-89.1
X238.7Y-92.1
X239.0Y-109.1
X243.6Y-96.3
T2
X145.463Y-122.945
X145.463Y-124.945
X166.245Y-119.2
X166.4Y-93.147
X166.4Y-96.647
X168.245Y-119.2
X198.518Y-92.4
X201.018Y-92.4
X219.9Y-111.0
X219.9Y-113.0
X239.0Y-111.3
X239.0Y-113.8
T3
X177.18Y-84.65
X179.45Y-96.925
X179.45Y-99.465
X179.45Y-105.725
X179.45Y-108.265
X179.45Y-114.525
X179.45Y-117.065
X182.26Y-84.65
X189.61Y-96.925
X189.61Y-99.465
X189.61Y-105.725
X189.61Y-108.265
X189.61Y-114.525
X189.61Y-117.065
X189.88Y-84.65
X192.42Y-84.65
T4
X129.545Y-136.825
X129.545Y-139.825
X129.8Y-85.77
X132.8Y-85.77
X135.8Y-85.77
X138.8Y-85.77
X141.8Y-85.77
X144.8Y-85.77
X153.2Y-85.77
X156.2Y-85.77
X159.2Y-85.77
X162.2Y-85.77
X165.2Y-85.77
X168.2Y-85.77
X218.375Y-85.8
X221.375Y-85.8
X229.875Y-85.8
X232.875Y-85.8
X244.53Y-80.1
X244.53Y-83.1
X244.53Y-86.1
X244.53Y-89.1
X244.53Y-92.1
X244.53Y-100.6
X244.53Y-103.6
X244.53Y-106.6
X244.53Y-109.6
X244.53Y-118.1
X244.53Y-121.1
X244.53Y-124.1
T5
X201.025Y-117.4
X201.025Y-125.0
X225.4Y-100.625
X233.0Y-100.625
T6
X211.225Y-125.0
X218.925Y-125.0
X225.4Y-110.825
X225.4Y-118.525
T7
X124.3Y-92.485
X124.3Y-100.085
X124.3Y-119.785
X124.3Y-127.385
T0
M30
