%TF.GenerationSoftware,KiCad,Pcbnew,(6.0.5)*%
%TF.CreationDate,2022-06-14T16:38:24+01:00*%
%TF.ProjectId,precharge,70726563-6861-4726-9765-2e6b69636164,rev?*%
%TF.SameCoordinates,Original*%
%TF.FileFunction,Profile,NP*%
%FSLAX46Y46*%
G04 Gerber Fmt 4.6, Leading zero omitted, Abs format (unit mm)*
G04 Created by KiCad (PCBNEW (6.0.5)) date 2022-06-14 16:38:24*
%MOMM*%
%LPD*%
G01*
G04 APERTURE LIST*
%TA.AperFunction,Profile*%
%ADD10C,0.100000*%
%TD*%
G04 APERTURE END LIST*
D10*
X254000000Y-129800000D02*
X254000000Y-78400000D01*
X122114214Y-76399950D02*
G75*
G03*
X120100000Y-78400000I-14J-2014250D01*
G01*
X254000000Y-78400000D02*
G75*
G03*
X252000000Y-76400000I-2000000J0D01*
G01*
X122100000Y-147300000D02*
X161300000Y-147300000D01*
X161269670Y-131450000D02*
X138500000Y-131450000D01*
X163300000Y-133800000D02*
X163300000Y-145300000D01*
X158300000Y-114975000D02*
X158300000Y-93825000D01*
X138500000Y-129950000D02*
G75*
G03*
X137750000Y-130700000I0J-750000D01*
G01*
X162019700Y-130700000D02*
G75*
G03*
X161269670Y-129950000I-750000J0D01*
G01*
X252000000Y-76400000D02*
X122114214Y-76400000D01*
X159050000Y-115725000D02*
G75*
G03*
X159800000Y-114975000I0J750000D01*
G01*
X161269670Y-131449970D02*
G75*
G03*
X162019670Y-130700000I30J749970D01*
G01*
X159050000Y-93075000D02*
G75*
G03*
X158300000Y-93825000I0J-750000D01*
G01*
X137750000Y-130700000D02*
G75*
G03*
X138500000Y-131450000I750000J0D01*
G01*
X120100000Y-145300000D02*
G75*
G03*
X122100000Y-147300000I2000000J0D01*
G01*
X165300000Y-131800000D02*
G75*
G03*
X163300000Y-133800000I0J-2000000D01*
G01*
X158300000Y-114975000D02*
G75*
G03*
X159050000Y-115725000I750000J0D01*
G01*
X161269670Y-129950000D02*
X138500000Y-129950000D01*
X252000000Y-131800000D02*
G75*
G03*
X254000000Y-129800000I0J2000000D01*
G01*
X161300000Y-147300000D02*
G75*
G03*
X163300000Y-145300000I0J2000000D01*
G01*
X159800000Y-93825000D02*
G75*
G03*
X159050000Y-93075000I-750000J0D01*
G01*
X165300000Y-131800000D02*
X252000000Y-131800000D01*
X120100000Y-78400000D02*
X120100000Y-145300000D01*
X159800000Y-114975000D02*
X159800000Y-93825000D01*
M02*
