%TF.GenerationSoftware,KiCad,Pcbnew,(6.0.5)*%
%TF.CreationDate,2022-06-14T16:38:24+01:00*%
%TF.ProjectId,precharge,70726563-6861-4726-9765-2e6b69636164,rev?*%
%TF.SameCoordinates,Original*%
%TF.FileFunction,Soldermask,Bot*%
%TF.FilePolarity,Negative*%
%FSLAX46Y46*%
G04 Gerber Fmt 4.6, Leading zero omitted, Abs format (unit mm)*
G04 Created by KiCad (PCBNEW (6.0.5)) date 2022-06-14 16:38:24*
%MOMM*%
%LPD*%
G01*
G04 APERTURE LIST*
G04 Aperture macros list*
%AMRoundRect*
0 Rectangle with rounded corners*
0 $1 Rounding radius*
0 $2 $3 $4 $5 $6 $7 $8 $9 X,Y pos of 4 corners*
0 Add a 4 corners polygon primitive as box body*
4,1,4,$2,$3,$4,$5,$6,$7,$8,$9,$2,$3,0*
0 Add four circle primitives for the rounded corners*
1,1,$1+$1,$2,$3*
1,1,$1+$1,$4,$5*
1,1,$1+$1,$6,$7*
1,1,$1+$1,$8,$9*
0 Add four rect primitives between the rounded corners*
20,1,$1+$1,$2,$3,$4,$5,0*
20,1,$1+$1,$4,$5,$6,$7,0*
20,1,$1+$1,$6,$7,$8,$9,0*
20,1,$1+$1,$8,$9,$2,$3,0*%
G04 Aperture macros list end*
%ADD10C,1.700000*%
%ADD11O,1.500000X2.020000*%
%ADD12RoundRect,0.250001X-0.499999X-0.759999X0.499999X-0.759999X0.499999X0.759999X-0.499999X0.759999X0*%
%ADD13C,3.000000*%
%ADD14O,2.020000X1.500000*%
%ADD15RoundRect,0.250001X-0.759999X0.499999X-0.759999X-0.499999X0.759999X-0.499999X0.759999X0.499999X0*%
%ADD16R,1.600000X1.600000*%
%ADD17C,1.600000*%
%ADD18R,2.300000X2.300000*%
%ADD19C,2.500000*%
%ADD20C,2.300000*%
%ADD21C,2.800000*%
%ADD22C,3.200000*%
%ADD23RoundRect,0.250001X0.759999X-0.499999X0.759999X0.499999X-0.759999X0.499999X-0.759999X-0.499999X0*%
%ADD24O,1.600000X1.600000*%
G04 APERTURE END LIST*
D10*
X192420000Y-84650000D03*
X189880000Y-84650000D03*
X182260000Y-84650000D03*
X177180000Y-84650000D03*
D11*
X232875000Y-85800000D03*
D12*
X229875000Y-85800000D03*
D13*
X231375000Y-81480000D03*
D14*
X244530000Y-92100000D03*
X244530000Y-89100000D03*
X244530000Y-86100000D03*
X244530000Y-83100000D03*
D15*
X244530000Y-80100000D03*
D13*
X248850000Y-89950000D03*
X248850000Y-82250000D03*
D16*
X166400000Y-93147349D03*
D17*
X166400000Y-96647349D03*
D16*
X219900000Y-113000000D03*
D17*
X219900000Y-111000000D03*
D16*
X239000000Y-111300000D03*
D17*
X239000000Y-113800000D03*
D18*
X225400000Y-100625000D03*
D19*
X225400000Y-110825000D03*
X225400000Y-118525000D03*
D20*
X233000000Y-100625000D03*
D21*
X124300000Y-127385000D03*
X124300000Y-119785000D03*
X124300000Y-100085000D03*
X124300000Y-92485000D03*
D14*
X244530000Y-109600000D03*
X244530000Y-106600000D03*
X244530000Y-103600000D03*
D15*
X244530000Y-100600000D03*
D13*
X248850000Y-102750000D03*
X248850000Y-107450000D03*
D18*
X201025000Y-125000000D03*
D19*
X211225000Y-125000000D03*
X218925000Y-125000000D03*
D20*
X201025000Y-117400000D03*
D16*
X198517621Y-92400000D03*
D17*
X201017621Y-92400000D03*
D16*
X145462500Y-122944888D03*
D17*
X145462500Y-124944888D03*
D16*
X166244888Y-119200000D03*
D17*
X168244888Y-119200000D03*
D22*
X173100000Y-127000000D03*
X238400000Y-127000000D03*
X200500000Y-81200000D03*
D11*
X221375000Y-85800000D03*
D12*
X218375000Y-85800000D03*
D13*
X219875000Y-81480000D03*
D14*
X129545000Y-136825000D03*
D23*
X129545000Y-139825000D03*
D13*
X125225000Y-138325000D03*
D16*
X179450000Y-105725000D03*
D24*
X179450000Y-108265000D03*
X189610000Y-108265000D03*
X189610000Y-105725000D03*
D11*
X168200000Y-85770000D03*
X165200000Y-85770000D03*
X162200000Y-85770000D03*
X159200000Y-85770000D03*
X156200000Y-85770000D03*
D12*
X153200000Y-85770000D03*
D13*
X155350000Y-81450000D03*
X166050000Y-81450000D03*
D14*
X244530000Y-124100000D03*
X244530000Y-121100000D03*
D15*
X244530000Y-118100000D03*
D13*
X248850000Y-121100000D03*
D16*
X179450000Y-96925000D03*
D24*
X179450000Y-99465000D03*
X189610000Y-99465000D03*
X189610000Y-96925000D03*
D16*
X179450000Y-114525000D03*
D24*
X179450000Y-117065000D03*
X189610000Y-117065000D03*
X189610000Y-114525000D03*
D11*
X144800000Y-85770000D03*
X141800000Y-85770000D03*
X138800000Y-85770000D03*
X135800000Y-85770000D03*
X132800000Y-85770000D03*
D12*
X129800000Y-85770000D03*
D13*
X131950000Y-81450000D03*
X142650000Y-81450000D03*
M02*
